<?xml version="1.0" encoding="utf-8"?>
<!-- Generator: Adobe Illustrator 23.0.3, SVG Export Plug-In . SVG Version: 6.00 Build 0)  -->
<svg version="1.1" id="Layer_1" xmlns="http://www.w3.org/2000/svg" xmlns:xlink="http://www.w3.org/1999/xlink" x="0px" y="0px"
	 viewBox="0 0 2000 1500" style="enable-background:new 0 0 2000 1500;" xml:space="preserve">
<style type="text/css">
	.st0{fill:#224B9B;}
</style>
<path class="st0" d="M504.9,524.7c-18.7-13.6-37.4-27-55.9-40.8c-4.1-3-6.6-2.8-10.6,0.1c-18.5,13.8-37.3,27.2-57.6,42
	c1.9-5.9,3.3-10,4.7-14.2c5.7-17.6,11.1-35.3,17.3-52.7c2-5.7,0.6-8.4-4-11.6c-18.5-13-36.6-26.4-56-40.5c2.7-0.3,4.1-0.6,5.5-0.6
	c21.7,0,43.3-0.2,65,0.1c5,0.1,7.1-1.6,8.6-6.3c6.5-20.9,13.4-41.6,20.2-62.4c0.3-1.1,0.8-2.1,1.8-4.8c6,18.2,11.4,34.9,16.9,51.5
	c2.3,7,2.9,16.8,7.8,20.2c5.3,3.7,14.7,1.6,22.4,1.6c17.3,0.1,34.6,0,52,0c0.7,0.8,1.5,1.5,2.2,2.3c-1.5,0.5-3.3,0.6-4.6,1.5
	c-17.2,12.4-34.2,25-51.5,37.2c-4.8,3.4-6.2,6.2-4.2,12.1c7.4,21.3,14,42.8,21,64.3C505.5,524.1,505.2,524.4,504.9,524.7z"/>
<path class="st0" d="M1494.1,523.7c7-21.7,13.9-43.4,21.3-64.9c1.8-5.4,0.7-7.9-3.8-11.1c-17.1-12-34-24.5-50.9-36.8
	c-1.5-1.1-2.9-2.3-5.7-4.6c18.1,0,34.6,0.1,51.1,0c8.6-0.1,19.3,2.4,25.2-1.7c5.6-3.9,6.3-14.9,8.9-22.8
	c5.2-15.7,10.2-31.5,15.7-48.6c1.1,2.7,1.9,4.3,2.4,5.9c6.6,20.3,13.4,40.6,19.7,61c1.5,4.7,3.5,6.4,8.6,6.3c23-0.3,46-0.1,71.4-0.1
	c-4.5,3.2-7.2,5.3-10,7.3c-15.8,11.4-31.4,23.1-47.4,34.2c-4.7,3.3-5.1,6.2-3.4,11.2c7.3,21.6,14.2,43.3,21.7,66.4
	c-2.8-1.8-4.5-2.8-6.1-4c-16.9-12.3-34-24.4-50.7-37c-4.4-3.3-7.2-3.6-11.7-0.2c-18.2,13.7-36.8,26.9-55.3,40.4
	C1494.9,524.4,1494.5,524.1,1494.1,523.7z"/>
<path class="st0" d="M780.8,1283.5c-9.2,6.7-16.7,12.2-24.2,17.6c-11.1,8.1-22.1,16.3-33.4,24.1c-4.2,2.9-5.3,5.5-3.6,10.6
	c7.5,21.8,14.4,43.7,22.1,67.3c-4.6-3.3-8-5.6-11.3-8c-15.6-11.3-31.2-22.5-46.6-34c-3.8-2.8-6.2-2.7-9.9,0.1
	c-16.6,12.4-33.4,24.4-50.2,36.5c-1.9,1.4-3.9,2.7-7.3,5.1c1.6-5.4,2.7-9.3,3.9-13.1c5.9-18.1,11.6-36.1,17.8-54.1
	c1.6-4.6,1-7.1-3.2-10c-17.3-12.2-34.3-24.8-51.5-37.2c-1.5-1.1-3-2.3-6.1-4.8c4.8,0,7.8,0,10.7,0c20,0,40-0.2,59.9,0.1
	c5.2,0.1,7.6-1.4,9.2-6.5c6.8-21.9,14-43.7,21.7-67.2c3.3,9.9,6.1,18.3,8.8,26.7c4.5,13.7,9,27.4,13.2,41.2c1.3,4.4,3.4,6,8.1,5.9
	c21.7-0.2,43.3-0.1,65-0.1C775.5,1283.5,777.1,1283.5,780.8,1283.5z"/>
<path class="st0" d="M1221.6,1283.5c22.8,0,45.6-0.2,68.3,0.1c5.4,0.1,7.9-1.3,9.6-6.8c6.2-20.2,13-40.2,19.5-60.3
	c0.6-1.7,1.3-3.4,2.4-6.1c7.5,23.1,14.7,45,21.6,67c1.5,4.6,3.5,6.4,8.6,6.3c21.4-0.3,42.8-0.1,64.3-0.1c1.6,0,3.2,0,6.4,0
	c-2.6,2.2-3.9,3.4-5.3,4.5c-17.3,12.6-34.5,25.3-52,37.7c-3.8,2.7-4.6,5-3.2,9.4c6.9,20.5,13.5,41.1,20.1,61.7
	c0.4,1.3,0.8,2.7,1.6,5.4c-2.6-1.6-4.1-2.3-5.5-3.3c-17.2-12.4-34.4-24.7-51.3-37.4c-4.3-3.3-7.1-2.8-11.1,0.2
	c-18.5,13.7-37.2,27.2-57.2,41.7c6.9-21.3,13.3-41.1,19.7-60.9c4.2-13.1,4.3-13-6.7-21c-16.7-12.1-33.4-24.3-50.1-36.4
	C1221.3,1284.5,1221.5,1284,1221.6,1283.5z"/>
<path class="st0" d="M1100.1,86.6c-18,13.1-35.9,26.4-54.2,39.2c-5.3,3.7-6.9,6.7-4.5,13.3c7.5,21,13.9,42.4,21.3,65
	c-2.6-1.6-4.1-2.4-5.5-3.4c-17-12.3-34-24.4-50.8-37c-4.6-3.4-7.6-3.9-12.4-0.2c-16.3,12.4-33,24.2-49.6,36.2
	c-1.8,1.3-3.7,2.6-7.1,4.9c7-21.5,13.4-41.3,19.8-61.2c4-12.4,4-12.4-6.2-19.9C933.9,111.2,917,99,899,85.9c2.7-0.3,4.1-0.7,5.5-0.7
	c21.7,0,43.3-0.2,65,0.1c5,0.1,7.2-1.4,8.6-6.2C984.7,58,991.7,37,998.5,16c0.3-0.8,0.7-1.6,1.6-4c5.1,15.5,9.7,29.5,14.2,43.5
	c2.5,7.8,5.4,15.5,7.4,23.4c1.3,5.3,4.1,6.5,9.2,6.4c22.8-0.3,45.7-0.1,68.5-0.1C1099.7,85.6,1099.9,86.1,1100.1,86.6z"/>
<path class="st0" d="M937.3,1488.9c8.2-25.4,16-49.3,23.8-73.6c-20.4-14.8-40.6-29.5-62.1-45.1c3.2-0.3,5.1-0.5,7.1-0.5
	c21.2,0,42.4-0.2,63.5,0.1c5.1,0.1,7.1-1.7,8.5-6.3c6.5-20.9,13.4-41.6,20.2-62.4c0.3-1,0.7-2.1,1.7-4.9
	c4.1,12.5,7.7,23.3,11.2,34.1c3.6,11.2,7.4,22.4,10.7,33.6c1.3,4.4,3.3,6,8.1,5.9c23.1-0.3,46.2-0.1,70.8-0.1
	c-2.5,2.2-4,3.5-5.6,4.7c-16.9,12.3-33.7,24.8-50.9,36.8c-4.7,3.3-5.1,6.1-3.4,11.2c7.3,21.6,14.2,43.3,21.9,66.9
	c-6-4.3-10.3-7.5-14.7-10.6c-14-10.2-28.2-20.2-42-30.7c-4.6-3.5-7.6-3.8-12.4-0.2c-16.3,12.4-33,24.2-49.5,36.2
	C942.5,1485.4,940.6,1486.7,937.3,1488.9z"/>
<path class="st0" d="M778.4,173c-18.5,13.4-36.8,27-55.5,40.2c-4.1,2.9-4.8,5.4-3.2,10C727,245.1,734,267,741.8,291
	c-21.9-15.9-42.3-30.7-62.9-45.6c-20.6,14.9-41,29.7-62.8,45.6c5.2-16.1,9.8-30.4,14.4-44.8c2.5-7.8,4.9-15.6,7.7-23.3
	c1.6-4.3,0.7-6.8-3.1-9.5c-17.9-12.7-35.5-25.6-53.2-38.5c-0.9-0.7-1.8-1.4-4.3-3.4c5.9,0,10.1,0,14.2,0c18.5,0,37.1-0.2,55.6,0.1
	c5.5,0.1,8-1.5,9.7-6.8c6.7-21.8,13.9-43.5,21.3-66.2c1,1.9,1.8,3.1,2.3,4.5c6.7,20.3,13.6,40.6,19.7,61c1.8,6,4.7,7.5,10.6,7.4
	c20-0.4,40-0.1,59.9-0.1c2.3,0,4.6,0,7,0C778.1,172,778.2,172.5,778.4,173z"/>
<path class="st0" d="M543.2,1050.2c-20,14.6-40.1,29.1-60.6,44c7.8,24,15.5,47.9,23.9,73.9c-21.9-15.9-42.2-30.6-62.8-45.6
	c-20.5,14.8-40.9,29.7-62.7,45.5c1.4-4.7,2.4-8,3.5-11.3c5.8-17.8,11.1-35.8,17.6-53.4c2.7-7.4,1-10.8-5.1-15
	c-16.5-11.3-32.4-23.3-48.6-35.1c-1.5-1.1-2.9-2.2-6-4.6c11.8,0,21.8,0,31.7,0c13,0,26-0.3,39,0.1c5,0.2,7.1-1.6,8.6-6.2
	c6.5-20.9,13.4-41.6,20.2-62.4c0.4-1.3,1-2.4,2-4.7c7.5,23.1,14.7,44.9,21.5,66.9c1.6,5.1,3.9,6.6,9.1,6.5
	c20.5-0.3,40.9-0.1,61.4-0.1c2.3,0,4.6,0,6.9,0C543.1,1049.2,543.2,1049.7,543.2,1050.2z"/>
<path class="st0" d="M1457.1,1048.7c22.1,0,44.2-0.2,66.3,0.2c6.5,0.1,9.6-1.4,11.6-8.2c6.3-21.4,13.6-42.6,20.9-65
	c1,2.1,1.7,3.3,2.2,4.6c6.7,20.6,13.5,41.1,20,61.7c1.5,4.8,3.6,6.8,9,6.7c22.8-0.4,45.7-0.1,70.1-0.1c-2.7,2.2-4.2,3.5-5.8,4.7
	c-17.1,12.5-34.1,25.1-51.5,37.3c-4,2.8-4.4,5.2-3,9.5c6.7,19.8,13.1,39.7,19.5,59.6c0.7,2.2,1.4,4.5,2.5,8.3
	c-21.6-15.7-42-30.4-62.7-45.5c-20.5,14.9-40.9,29.7-62.8,45.6c8.3-25.6,16-49.5,23.9-73.9c-20.3-14.8-40.5-29.5-60.7-44.1
	C1456.8,1049.7,1456.9,1049.2,1457.1,1048.7z"/>
<path class="st0" d="M295.8,844.2c6.6-20.3,12.6-40.8,20-60.8c3-8.3,1.1-12.2-5.7-16.8c-17.6-12.1-34.6-24.9-53.3-38.5
	c3.8-0.2,6-0.5,8.3-0.5c20.9,0,41.9-0.1,62.8,0.1c4.3,0,6.3-1.3,7.6-5.5c7-22.2,14.4-44.3,22-67.8c1.1,3,1.9,4.7,2.5,6.5
	c6.7,20.3,13.5,40.6,19.8,61c1.4,4.6,3.6,5.9,8.2,5.8c20.7-0.2,41.4-0.1,62.1-0.1c2.3,0,4.6,0.2,8.8,0.4
	c-16,11.6-30.5,22.1-44.9,32.7c-5.6,4.1-13.9,7.5-15.7,13c-1.8,5.4,2.8,13.1,4.9,19.7c5.5,17.4,11.2,34.7,17.4,53.8
	c-21.8-15.8-42.1-30.6-62.9-45.6c-20.3,14.7-40.4,29.3-60.6,43.9C296.7,845,296.2,844.6,295.8,844.2z"/>
<path class="st0" d="M1543.1,727.6c5.7,0,11.3,0,17,0c17.3,0,34.7-0.1,52,0.1c4.6,0.1,6.7-1.3,8.1-5.9c6.3-20.4,13.1-40.7,19.8-61
	c0.6-1.8,1.3-3.6,2.4-6.7c7.2,22.2,14.5,42.9,20.6,64c2.3,7.7,5.7,9.9,13.5,9.7c21.6-0.5,43.3-0.2,66.5-0.2
	c-2.7,2.3-4.1,3.7-5.7,4.8c-16.9,12.3-33.8,24.7-50.9,36.8c-4,2.8-5,5.2-3.4,10.1c6.8,20,13.1,40.2,19.6,60.3
	c0.5,1.5,0.9,3.1,1.7,6.1c-2.6-1.5-4.1-2.2-5.5-3.2c-17.3-12.6-34.7-25-51.9-37.8c-3.5-2.6-5.8-2.6-9.3,0
	c-18.7,13.9-37.7,27.5-57.7,42.1c0.8-3.1,1.2-5,1.8-6.8c6.5-20.1,12.8-40.3,19.7-60.3c1.8-5.2,0.5-7.7-3.6-10.6
	c-18.4-13.1-36.7-26.5-55-39.8C1543,728.7,1543.1,728.1,1543.1,727.6z"/>
</svg>
